<?xml version="1.0" standalone="no"?>
<!DOCTYPE svg PUBLIC "-//W3C//DTD SVG 20010904//EN"
 "http://www.w3.org/TR/2001/REC-SVG-20010904/DTD/svg10.dtd">
<svg version="1.0" xmlns="http://www.w3.org/2000/svg"
 width="228.000000pt" height="188.000000pt" viewBox="0 0 228.000000 188.000000"
 preserveAspectRatio="xMidYMid meet">
<metadata>
Created by potrace 1.10, written by Peter Selinger 2001-2011
</metadata>
<g transform="translate(0.000000,188.000000) scale(0.100000,-0.100000)"
fill="#000000" stroke="none">
<path d="M935 1765 c-27 -7 -85 -23 -127 -34 -280 -76 -565 -354 -658 -642
-49 -150 -52 -171 -52 -329 0 -160 9 -213 60 -360 40 -115 125 -253 145 -234
3 3 -3 15 -13 27 -53 56 -131 245 -156 375 -17 88 -18 300 -3 374 89 428 421
740 859 808 185 28 375 -4 565 -95 188 -91 327 -221 437 -408 147 -250 168
-597 54 -877 -28 -68 -92 -180 -110 -192 -7 -5 -4 -8 6 -8 35 0 109 134 157
285 98 309 37 651 -163 915 -73 96 -108 131 -216 213 -129 98 -238 145 -425
183 -86 17 -291 17 -360 -1z"/>
<path d="M1020 1729 c-323 -28 -629 -238 -777 -534 -144 -288 -136 -638 21
-919 31 -56 66 -99 66 -82 0 3 -22 50 -49 104 -89 176 -121 300 -121 468 0
103 12 182 41 269 24 69 115 257 138 283 9 9 36 41 60 70 61 74 172 161 266
209 183 93 369 132 535 113 116 -13 146 -20 233 -52 287 -104 481 -297 584
-578 39 -108 44 -126 55 -228 22 -192 -11 -356 -114 -554 -56 -108 -59 -141
-5 -57 275 431 147 1031 -283 1325 -122 84 -301 150 -430 159 -47 4 -94 7
-105 9 -11 2 -63 -1 -115 -5z"/>
<path d="M960 1409 c-172 -46 -342 -185 -412 -339 -60 -132 -77 -301 -42 -433
82 -318 403 -524 724 -463 355 66 582 409 506 765 -35 161 -175 340 -325 415
-149 75 -304 94 -451 55z m282 -20 c72 -15 191 -71 247 -116 151 -122 220
-258 228 -448 9 -192 -39 -316 -172 -451 -93 -94 -179 -143 -302 -170 -303
-67 -617 122 -707 426 -22 75 -22 256 0 330 49 164 168 306 322 384 95 48 270
69 384 45z"/>
<path d="M1000 1104 c-59 -11 -110 -27 -120 -40 -45 -53 289 -85 440 -41 33 9
45 18 45 32 0 30 -72 46 -215 50 -69 2 -136 1 -150 -1z m272 -36 l53 -12 -40
-12 c-42 -13 -272 -17 -313 -6 -33 10 -32 26 3 33 52 11 242 9 297 -3z"/>
<path d="M880 1001 c0 -6 8 -11 18 -11 41 0 56 -49 22 -73 -17 -12 -18 -17 -8
-51 9 -28 20 -41 40 -48 34 -12 45 -43 24 -67 -15 -16 -14 -19 7 -38 41 -38
70 -47 148 -47 94 1 134 22 173 94 22 40 72 237 63 247 -2 1 -23 -5 -47 -14
-66 -23 -269 -29 -345 -10 -33 8 -68 18 -77 22 -11 4 -18 3 -18 -4z m450 -53
c0 -7 -7 -41 -15 -76 -32 -136 -75 -177 -185 -177 -42 1 -76 7 -97 18 -28 15
-32 21 -27 46 5 23 -1 36 -30 69 -39 43 -42 54 -23 96 l12 28 90 -4 c50 -3
119 -1 155 2 106 11 120 11 120 -2z"/>
<path d="M764 946 c-15 -60 41 -137 126 -175 56 -26 70 -26 70 -3 0 13 -19 28
-57 48 -51 26 -103 79 -103 105 0 5 25 9 55 9 48 0 55 2 55 20 0 18 -7 20 -70
20 -66 0 -70 -1 -76 -24z"/>
<path d="M1327 753 c-15 -14 -6 -29 24 -40 37 -14 36 -42 -3 -60 -94 -46 -380
-43 -471 4 -35 17 -31 33 13 55 l33 17 -27 11 c-15 5 -37 10 -50 10 -40 0
-125 -30 -153 -54 -25 -21 -26 -25 -13 -41 58 -70 397 -106 660 -70 104 14
181 35 207 56 41 35 -9 79 -119 104 -74 17 -92 18 -101 8z m-493 -57 c-4 -19
1 -32 21 -52 14 -14 24 -28 22 -30 -6 -7 -128 29 -152 44 -20 12 -20 12 0 25
28 17 77 35 98 36 14 1 16 -4 11 -23z m661 -2 c27 -13 33 -19 25 -30 -14 -16
-95 -44 -127 -44 l-24 0 22 31 c19 27 20 35 10 52 -12 19 -11 20 22 14 20 -3
52 -13 72 -23z"/>
<path d="M843 556 c5 -19 92 -56 153 -66 126 -21 288 -6 358 33 64 36 56 45
-26 31 -40 -7 -134 -13 -208 -13 -74 0 -168 6 -208 13 -49 8 -71 9 -69 2z"/>
</g>
</svg>
